<?xml version="1.0" encoding="UTF-8" standalone="no"?>
<!-- Created with Inkscape (https://www.inkscape.org/) -->

<svg
   xmlns:dc="http://purl.org/dc/elements/1.1/"
   xmlns:cc="http://creativecommons.org/ns#"
   xmlns:rdf="http://www.w3.org/1999/02/22-rdf-syntax-ns#"
   xmlns:svg="http://www.w3.org/2000/svg"
   xmlns="http://www.w3.org/2000/svg"
   xmlns:sodipodi="https://sodipodi.sourceforge.net/DTD/sodipodi-0.dtd"
   xmlns:inkscape="https://www.inkscape.org/namespaces/inkscape"
   width="16"
   height="16"
   id="svg2"
   version="1.1"
   inkscape:version="0.48.3.1 r9886"
   sodipodi:docname="spring-boot-devtools-icon.svg"
   inkscape:export-filename="/home/kdvolder/commandline-dev/spring-ide/plugins/org.springframework.ide.eclipse.boot/resources/icons/spring-boot-devtools.png"
   inkscape:export-xdpi="90"
   inkscape:export-ydpi="90">
  <defs
     id="defs4" />
  <sodipodi:namedview
     id="base"
     pagecolor="#ffffff"
     bordercolor="#666666"
     borderopacity="1.0"
     inkscape:pageopacity="0.0"
     inkscape:pageshadow="2"
     inkscape:zoom="17"
     inkscape:cx="7.3137695"
     inkscape:cy="10.352941"
     inkscape:document-units="px"
     inkscape:current-layer="layer1"
     showgrid="false"
     inkscape:window-width="914"
     inkscape:window-height="722"
     inkscape:window-x="106"
     inkscape:window-y="398"
     inkscape:window-maximized="0" />
  <metadata
     id="metadata7">
    <rdf:RDF>
      <cc:Work
         rdf:about="">
        <dc:format>image/svg+xml</dc:format>
        <dc:type
           rdf:resource="http://purl.org/dc/dcmitype/StillImage" />
        <dc:title></dc:title>
      </cc:Work>
    </rdf:RDF>
  </metadata>
  <g
     inkscape:label="Layer 1"
     inkscape:groupmode="layer"
     id="layer1"
     transform="translate(0,-1036.3622)">
    <path
       style="fill:#008000"
       d="M 4.875 1.5 L 4.53125 1.84375 C 4.3422416 2.04455 3.56183 3.37515 2.78125 4.78125 C 0.91165099 8.14935 0.91169399 7.8249 2.78125 11.1875 C 4.2798365 13.883 4.4925623 14.2395 4.9375 14.4375 C 5.0901518 14.5045 6.6401707 14.54925 8.375 14.53125 L 11.53125 14.5 L 11.875 14.125 C 12.062119 13.9242 12.873618 12.5937 13.65625 11.1875 C 15.530897 7.8193 15.530897 8.14975 13.65625 4.78125 C 12.873618 3.37515 12.062269 2.04455 11.875 1.84375 L 11.53125 1.5 L 8.21875 1.5 L 4.875 1.5 z M 10 4 C 10.386381 3.999725 10.751468 4.08345 11 4.21875 L 11.34375 4.40625 L 10.5 4.875 L 9.625 5.34375 L 9.625 5.90625 L 9.625 6.46875 L 10.125 6.78125 L 10.59375 7.09375 L 11.4375 6.65625 C 11.891327 6.41365 12.260001 6.2286 12.28125 6.25 C 12.3025 6.271 12.27884 6.4981 12.21875 6.75 C 11.948456 7.883 11.091065 8.5734 9.9375 8.5625 L 9.3125 8.53125 L 7.71875 10.15625 C 6.2310974 11.66185 5.6780669 12.125 5.28125 12.125 C 5.207739 12.125 4.9809977 12.0293 4.78125 11.9375 C 4.2239109 11.6829 3.9880359 11.0503 4.21875 10.4375 C 4.270983 10.2988 5.0690236 9.40985 6 8.46875 L 7.6875 6.78125 L 7.71875 6.1875 C 7.752984 5.3192 8.1893346 4.63785 8.96875 4.21875 C 9.2181856 4.08455 9.6136191 4.000275 10 4 z "
       transform="translate(0,1036.3622)"
       id="path3084" />
  </g>
</svg>
