<?xml version="1.0" encoding="UTF-8" standalone="no"?>
<svg
   xmlns:dc="https://purl.org/dc/elements/1.1/"
   xmlns:cc="https://creativecommons.org/ns#"
   xmlns:rdf="https://www.w3.org/1999/02/22-rdf-syntax-ns#"
   xmlns:svg="https://www.w3.org/2000/svg"
   xmlns="https://www.w3.org/2000/svg"
   xmlns:sodipodi="https://sodipodi.sourceforge.net/DTD/sodipodi-0.dtd"
   xmlns:inkscape="https://www.inkscape.org/namespaces/inkscape"
   fill="#000000"
   viewBox="0 0 16 16"
   width="32px"
   height="32px"
   version="1.1"
   id="svg4"
   sodipodi:docname="docker-inactive.svg"
   inkscape:export-filename="/home/kdvolder/git/spring-ide/plugins/org.springframework.ide.eclipse.boot.dash.docker/icons/docker-inactive.png"
   inkscape:export-xdpi="48"
   inkscape:export-ydpi="48"
   inkscape:version="0.92.3 (2405546, 2018-03-11)">
  <metadata
     id="metadata10">
    <rdf:RDF>
      <cc:Work
         rdf:about="">
        <dc:format>image/svg+xml</dc:format>
        <dc:type
           rdf:resource="https://purl.org/dc/dcmitype/StillImage" />
      </cc:Work>
    </rdf:RDF>
  </metadata>
  <defs
     id="defs8" />
  <sodipodi:namedview
     pagecolor="#ffffff"
     bordercolor="#666666"
     borderopacity="1"
     objecttolerance="10"
     gridtolerance="10"
     guidetolerance="10"
     inkscape:pageopacity="0"
     inkscape:pageshadow="2"
     inkscape:window-width="1787"
     inkscape:window-height="1041"
     id="namedview6"
     showgrid="false"
     inkscape:zoom="7.375"
     inkscape:cx="-34.169492"
     inkscape:cy="16"
     inkscape:window-x="0"
     inkscape:window-y="0"
     inkscape:window-maximized="0"
     inkscape:current-layer="svg4" />
  <path
     d="M 3.4784702,1.3220339 V 3.5603663 H 5.7168026 V 1.3220339 Z m 3.3574986,0 V 3.5603663 H 9.0743012 V 1.3220339 Z m 5.3706852,2.9902722 -0.454661,0.3344383 c 0,0 -0.379793,0.2790442 -0.756312,0.71478 -0.376518,0.4357359 -0.802215,1.0547675 -0.802215,1.8361321 0,0.5499356 0.04491,0.5751532 0.08962,0.8393747 H 0.09911282 l 0.0218586,0.5814418 c 0.0608608,1.521513 0.53199592,2.804047 1.25906218,3.809974 v 0.08525 h 0.067762 c 1.0557977,1.404825 2.6331546,2.232618 4.4067168,2.238333 h 0.00219 c 2.1139056,0 3.5801449,-0.503516 4.6559046,-1.383657 0.999709,-0.817917 1.61521,-1.946888 2.247077,-3.156399 2.06355,-0.181116 2.972785,-1.7902287 2.972785,-1.7902287 l 0.19017,-0.3890818 -0.327881,-0.2797916 c 0,0 -0.935845,-0.6537905 -2.168385,-0.7388247 C 13.234866,5.8116735 12.536721,4.771339 12.536721,4.771339 Z M 0.1209715,4.6795325 V 6.917865 H 2.359304 V 4.6795325 Z m 3.3574987,0 V 6.917865 H 5.7168026 V 4.6795325 Z m 3.3574986,0 V 6.917865 H 9.0743012 V 4.6795325 Z m 5.0406182,1.379285 c 0.236671,0.4183961 0.555212,0.8541146 0.555212,1.4186305 v 0.6251594 l 0.620788,-0.069948 c 0.569381,-0.063265 1.02686,0.1150617 1.361797,0.2950925 -0.280468,0.3623592 -0.784673,0.8284452 -1.982585,0.8284452 h -0.340996 l -0.157382,0.3038361 c -0.670029,1.2989748 -1.269203,2.3392538 -2.1290386,3.0427328 -0.859448,0.703163 -2.004025,1.129711 -3.9454982,1.130097 -1.1368538,-0.0037 -2.149956,-0.39468 -2.9334395,-1.119167 H 4.5976364 V 11.394529 H 2.0685831 C 1.7163697,10.765731 1.4599682,10.026635 1.3538031,9.1561974 H 11.668929 L 11.424112,8.4195587 c 0,0 -0.11148,-0.2959253 -0.11148,-1.2219022 0,-0.3378016 0.240156,-0.7696146 0.528981,-1.1038651 0.01804,-0.020875 0.01704,-0.015081 0.03497,-0.034974 z M 6.2763857,10.275364 a 0.55958311,0.55958311 0 0 0 -0.5595831,0.559583 0.55958311,0.55958311 0 0 0 0.5595831,0.559582 0.55958311,0.55958311 0 0 0 0.5595831,-0.559582 0.55958311,0.55958311 0 0 0 -0.5595831,-0.559583 z"
     id="path2"
     inkscape:connector-curvature="0"
     style="stroke-width:1.11916614;fill:#999999" />
</svg>
